<?xml version="1.0" encoding="utf-8"?>
<!-- Generator: Adobe Illustrator 23.0.2, SVG Export Plug-In . SVG Version: 6.00 Build 0)  -->
<svg version="1.1" id="Layer_1" xmlns="http://www.w3.org/2000/svg" xmlns:xlink="http://www.w3.org/1999/xlink" x="0px" y="0px"
	 viewBox="0 0 24 24" style="enable-background:new 0 0 24 24;" xml:space="preserve">
<style type="text/css">
	.st0{fill:#231815;}
	.st1{fill:#FFFFFF;}
</style>
<circle class="st0" cx="12" cy="12" r="11.6"/>
<path class="st1" d="M12,0C5.4,0,0,5.4,0,12c0,6.6,5.4,12,12,12s12-5.4,12-12C24,5.4,18.6,0,12,0z M17.5,2.4
	c0.9,0.5,1.8,1.2,2.5,1.9c0,0.2-0.2,0.3-0.4,0.3c-0.3,0-1.3-0.8-2-1.5C17.2,2.7,17.3,2.5,17.5,2.4z M8.9,3.5l0.8-1
	c0,0,0.6-0.8,1.1-0.8c0.5-0.1,2-0.1,2.4-0.1c0.4,0,1.3,0,1.9,0.3c0.6,0.3,1.6,1.3,1.9,1.6c0.3,0.3,0.4,0.8,0.2,1.2
	c0,0-0.7,1.5-1.3,1.9C15.5,7,13.6,7,12.4,6.9c-0.7,0-1.2-0.3-1.4-0.4L9.2,4.7l0,0C8.6,4.1,8.9,3.5,8.9,3.5z M3.2,5.3
	c1.3-1.7,3-2.9,5-3.7c0.1,0,0.2,0,0.4,0c0.5,0.1-0.1,0.9-0.3,1.3C8,3.2,7.6,3.9,6.9,4.2l0,0C5.9,4.8,5,5.4,4.3,5.9
	C4.1,6,3.7,6.2,3.2,6C2.9,6,3,5.6,3.2,5.3z M1.3,14.4c-0.1-0.2-0.2-0.6-0.3-1C1,12.9,0.9,12.5,0.9,12c0-1.6,0.3-3.1,0.9-4.4
	c0.2-0.4,0.5-0.5,0.7-0.5c0.3,0,0.7,0.2,0.7,1.3c0,0.9,0.1,1.7,0.1,2.3l0,0c0,0,0.1,0.9-0.2,1.5c-0.3,0.6-0.6,1.3-0.8,2
	C2.1,15,1.5,14.6,1.3,14.4z M4.5,20.1c-1.2-1.2-2.2-2.6-2.8-4.2c0-0.1,0-0.2,0.1-0.2c0.2,0,0.7,0.7,0.7,0.7l1.9,3
	C4.4,19.4,4.6,19.9,4.5,20.1z M3,15.5c0-0.7,0.9-2.7,0.9-2.7s0.2-0.6,0.9-0.5l2.8,0.2l0,0c0.9,0.1,1.2,0.7,1.2,0.7s1.2,2.3,1.5,2.6
	c0.2,0.3,0.4,0.8,0.3,1.4c-0.5,1.2-0.9,1.9-1.2,2.4c-0.2,0.2-0.6,0.4-1.2,0.3c-0.7,0-2-0.3-2.2-0.3c-0.2-0.1-0.8-0.4-1.2-0.8
	C4.4,18.3,3,16.2,3,15.5z M12.4,23.1c-0.1,0-0.3,0-0.4,0c-2.5,0-4.7-0.8-6.6-2.2c-0.1-0.1-0.2-0.3-0.1-0.5c0.2-0.3,1-0.1,1-0.1
	s1.4,0.3,2.7,0.3c0,0,0.2,0,0.5,0.1c1,0.6,2,1.1,2.7,1.4l0,0c0.3,0.2,0.4,0.4,0.4,0.5C12.6,22.9,12.6,23,12.4,23.1z M12.4,16.2
	C12.4,16.2,12.4,16.2,12.4,16.2c-0.8-0.1-1.3-0.6-1.3-0.6s-1.5-2.2-1.7-2.8c-0.2-0.4-0.1-0.8,0-1.1c0.5-1,1.2-2.4,1.8-3.4
	c0.4-0.5,1.1-0.7,1.4-0.7c0.3,0,2.6-0.3,3.4,0c0.8,0.3,1.8,2.2,2.1,2.8s0.5,1.1,0.5,1.6c0,0.5-1.2,2.6-1.6,3.3
	c-0.4,0.6-1.3,0.8-1.7,0.9C14.1,16.2,13.1,16.2,12.4,16.2z M14,22.9c0-0.1,0.1-0.3,0.6-0.5l0,0c1.5-0.6,2.8-1.5,3.5-1.9c0,0,0,0,0,0
	l0.1-0.1c0.3-0.2,0.7,0,0.9,0.2C17.6,21.7,15.9,22.5,14,22.9z M21.9,16.3c-0.8,1.8-1.7,2.5-2.7,2.9c-0.7,0.3-1.1-0.1-1.2-0.3
	c-0.2-0.5-0.4-1-0.6-1.4c-0.3-0.7,0-1.3,0-1.3s1.6-2.8,1.8-3.4c0.3-0.6,0.8-0.8,0.8-0.8s0.9-0.2,1.3-0.2c0.5-0.1,0.8,0.3,0.9,0.6
	C22.3,12.8,22.7,14.5,21.9,16.3z M22.5,9.3c0-0.1,0-0.4,0.1-0.8c0.2,0.5,0.3,1.1,0.4,1.6C22.4,9.9,22.5,9.5,22.5,9.3z"/>
</svg>
